<!--?xml version="1.0" encoding="utf-8"?-->
<!-- Generator: Adobe Illustrator 18.1.1, SVG Export Plug-In . SVG Version: 6.00 Build 0)  -->

<svg version="1.1" id="_x32_" xmlns="http://www.w3.org/2000/svg" xmlns:xlink="http://www.w3.org/1999/xlink" x="0px" y="0px" viewBox="0 0 512 512" style="width: 256px; height: 256px; opacity: 1;" xml:space="preserve">
<style type="text/css">
	.st0{fill:#4B4B4B;}
</style>
<g>
	<path class="st0" d="M502.64,251.332c-5.268-14.021-12.655-25.759-21.284-35.817c-3.02-36.949,35.682-82.402,12.08-139.053
		C470.427,21.239,406.001-4.071,380.691,0.531c-25.31,4.602-20.708,32.213,2.301,32.213c16.106,0,75.931,20.708,78.232,62.125
		c2.535,45.758-12.134,72.587-34.496,85.117c-46.036-14.507-99.659-3.937-131.17,25.328c-32.213,29.912-75.93,80.532-117.347,57.523
		c-33.471-18.596-71.329-48.32-71.329-48.32l-4.602,29.912c0,0-23.441,13.608-27.611,23.009
		c-9.204,20.708-36.815,43.718-36.815,43.718s13.806,34.514,41.416,34.514c24.034,0,77.656,26.146,60.831,55.68
		c-41.848,27.045-100.414,63.5-107.892,60.714c-11.793-4.404-39.044,1.429-23.71,24.591c15.352,23.162,39.223,27.342,49.29,14.012
		c0,0,311.398-127.386,336.708-131.988c0,0-4.602,23.009,16.106,36.815c20.708,13.806,9.204,34.514,9.204,34.514
		c-11.504,23.009-20.708,41.417-34.514,41.417c-13.805,0-23.009,18.407-9.204,25.31s43.718,9.204,50.62-6.903
		c6.903-16.106,59.824-89.736,50.62-110.444C468.126,368.679,525.506,312.306,502.64,251.332z" style="fill: rgb(255, 165, 0);"></path>
</g>
</svg>
